<?xml version="1.0" encoding="utf-8"?>
<!-- Generator: Adobe Illustrator 24.2.3, SVG Export Plug-In . SVG Version: 6.00 Build 0)  -->
<svg version="1.1" id="Capa_1" xmlns="http://www.w3.org/2000/svg" xmlns:xlink="http://www.w3.org/1999/xlink" x="0px" y="0px"
	 viewBox="0 0 500 500" style="enable-background:new 0 0 500 500;" xml:space="preserve">
<g>
	<path d="M53.25,261.45c4.24-0.09,8.48-0.25,12.73-0.25c20.12-0.03,40.25-0.04,60.37,0.02c2.81,0.01,5.45-0.4,8-1.57
		c32.24-14.7,51.25-39.32,54.42-74.84c2.09-23.41,0.38-46.97,0.72-70.45c0.04-2.87,0.05-5.75,0.02-8.62
		c-0.02-1.82,0.69-2.67,2.62-2.8c21.72-1.55,40.33,4.51,53.96,22.32c7.34,9.59,11.4,20.46,11.42,32.67
		c0.02,25.25,0.01,50.5,0.02,75.75c0,5,0.01,5.01,4.87,5.01c34.62,0,69.25,0,103.87,0c5.51,0,5.44,0.06,4.75,5.45
		c-2.66,20.93-5.21,41.86-7.82,62.8c-2.88,23.04-5.81,46.07-8.67,69.1c-2.71,21.8-5.35,43.61-8.02,65.41c-46.5,0-93,0-139.5,0
		c-0.47-0.15-0.93-0.38-1.41-0.44c-19.03-2.4-36.43-9.03-52.12-20.08c-0.61-0.43-1.22-0.89-1.89-1.2c-4.61-2.1-7.27-0.41-7.32,4.55
		c-0.05,5.73-0.17,11.45-0.26,17.18c-29.25,0-58.5-0.04-87.75,0.07c-2.57,0.01-3.08-0.51-3.07-3.07
		C53.27,379.45,53.25,320.45,53.25,261.45z M144.27,338.1c0,15.5-0.06,31,0.05,46.49c0.03,3.69-1.65,8.34,0.86,10.81
		c2.35,2.32,6.92,0.63,10.5,0.74c2.3,0.07,4.34,0.3,6.26,1.87c16.39,13.36,35.37,20.25,56.33,20.52
		c34.74,0.46,69.49,0.12,104.23,0.18c2.59,0,3.44-1.01,3.64-3.51c0.36-4.6,1.02-9.18,1.65-13.75c0.65-4.73,0.69-4.74-4.2-4.74
		c-13.12-0.01-26.25-0.15-39.37,0.08c-3.89,0.07-5.03-1.23-4.78-4.94c0.28-4.11,0.06-8.24,0.06-12.37c0.01-5.8,0.01-5.8,5.63-5.81
		c14.12,0,28.25-0.09,42.37,0.07c2.94,0.03,4.05-1.09,4.34-3.76c0.52-4.71,0.99-9.44,1.75-14.12c0.53-3.25-0.29-4.3-3.79-4.26
		c-15.24,0.2-30.5-0.02-45.74,0.16c-3.66,0.04-4.83-1.15-4.62-4.71c0.26-4.48,0.05-8.99,0.07-13.49c0.02-4.87,0.03-4.89,5.05-4.89
		c16-0.01,32-0.06,47.99,0.05c3.12,0.02,4.84-0.49,4.95-4.18c0.12-4.35,0.94-8.68,1.54-13c0.66-4.82,0.7-4.83-4.09-4.83
		c-17.12-0.01-34.24-0.06-51.37,0.05c-3.06,0.02-4.25-0.92-4.12-4.05c0.2-4.74,0.28-9.51-0.02-14.24c-0.24-3.82,1.08-4.9,4.86-4.86
		c18,0.18,35.99,0,53.99,0.15c3.14,0.03,4.58-0.9,4.88-4.03c0.43-4.6,0.9-9.2,1.69-13.74c0.62-3.59-0.65-4.35-4.08-4.34
		c-33.49,0.12-66.99,0.07-100.48,0.07c-5.78,0-5.79-0.01-5.79-5.65c0-31.49,0.02-62.99-0.01-94.48
		c-0.02-14.03-5.81-24.82-18.23-31.75c-3.25-1.81-3.72-1.49-3.72,2.27c-0.02,16.5-0.05,32.99,0,49.49c0.01,4.4-0.34,8.76-1.11,13.05
		c-6.98,38.86-28.06,67.18-63.62,84.52c-2.63,1.28-3.62,2.77-3.6,5.71C144.33,302.6,144.27,320.35,144.27,338.1z M76.02,351.45
		c0,21.12,0.04,42.25-0.05,63.37c-0.01,2.89,0.79,3.96,3.82,3.92c12.5-0.14,25-0.15,37.5,0c3.17,0.04,4.01-1.07,4.01-4.11
		c-0.08-42.12-0.08-84.25,0-126.37c0.01-3.04-0.84-4.15-4.01-4.11c-12.25,0.15-24.5,0.2-36.75-0.02c-3.69-0.06-4.62,1.15-4.59,4.69
		C76.09,309.7,76.02,330.57,76.02,351.45z"/>
	<path d="M437.25,146.7c-1.76,10.15-4.41,20.02-9.77,28.92c-15.66,26-38.46,40.1-69.05,40.28c-40.49,0.24-74.64-30.71-78.76-70.88
		c-4.27-41.66,24.18-79.25,65.81-86.95c0.85-0.16,1.68-0.41,2.53-0.62c7,0,14,0,21,0c0.84,0.21,1.67,0.46,2.52,0.62
		c22.32,4.21,39.91,15.66,52.71,34.42c7.02,10.29,10.8,21.82,13.02,33.96C437.25,133.2,437.25,139.95,437.25,146.7z M414.47,137.12
		c-0.63-31.39-23.94-56.46-55.6-56.72c-30.95-0.25-56.01,23.93-56.17,56.34c-0.16,31.29,24.12,55.86,55.61,56
		C389.42,192.89,413.57,168.81,414.47,137.12z"/>
	<path d="M400.05,122.69c-0.42,0.53-0.88,1.26-1.48,1.86c-16.34,16.36-32.7,32.68-49,49.07c-1.72,1.73-2.93,1.71-4.63-0.01
		c-8.78-8.89-17.62-17.72-26.5-26.51c-1.53-1.52-1.87-2.67-0.15-4.32c4.15-3.98,8.23-8.03,12.19-12.2c1.79-1.89,3.02-1.46,4.6,0.19
		c3.1,3.26,6.46,6.27,9.48,9.6c1.96,2.17,3.25,2.22,5.36,0.06c10.41-10.62,21.05-21.01,31.45-31.64c2.33-2.39,3.76-2.41,5.97,0.03
		c3.52,3.88,7.38,7.46,11.08,11.19C399.1,120.71,399.96,121.32,400.05,122.69z"/>
</g>
</svg>
