<?xml version="1.0" encoding="utf-8"?>
<!-- Generator: Adobe Illustrator 24.2.3, SVG Export Plug-In . SVG Version: 6.00 Build 0)  -->
<svg version="1.1" id="Capa_1" xmlns="http://www.w3.org/2000/svg" xmlns:xlink="http://www.w3.org/1999/xlink" x="0px" y="0px"
	 viewBox="0 0 500 500" style="enable-background:new 0 0 500 500;" xml:space="preserve">
<g>
	<path d="M268,58.75c0.67,0.56,1.4,1.06,2.01,1.68c22.9,22.88,45.79,45.77,68.7,68.64c2.45,2.45,2.77,5.47,2.77,8.65
		c0,12.37,0.09,24.75-0.06,37.12c-0.04,3.25,0.97,5.17,3.83,6.92c24.25,14.77,39.76,35.98,46.23,63.7c0.26,1.09,0.47,2.2,0.64,3.31
		c0.64,3.98-1.17,7-4.6,7.75c-3.31,0.72-6.41-1.51-7.18-5.45c-2.52-12.83-7.4-24.66-15.21-35.14
		c-15.52-20.84-36.19-32.78-62.13-35.59c-44.17-4.78-85.54,25.33-94.43,69.41c-9.91,49.14,22.85,95.73,70.93,103.57
		c47.14,7.69,89.93-21.35,100.31-67.69c0.92-4.13,1.3-8.38,1.93-12.57c0.55-3.64,2.97-5.98,6.1-5.87c3.35,0.11,5.8,2.75,5.65,6.6
		c-0.62,15.55-5.21,29.98-13.1,43.3c-1.92,3.25-1.76,5.25,1.06,7.55c2.12,1.73,3.98,3.8,5.85,5.81c2.02,2.16,3.8,4.14,7.31,2.4
		c1.9-0.94,3.87,0.44,5.34,1.91c12.37,12.38,24.73,24.76,37.07,37.16c3,3.02,4.1,7.09,5.73,10.86c0,4,0,8,0,12
		c-0.4,1.18-0.8,2.36-1.21,3.54c-6.24,17.83-29.73,23.87-43.39,10.83c-12.28-11.73-24.09-23.95-36.11-35.95
		c-1.49-1.49-2.88-3.4-2.06-5.31c1.74-4.01-0.77-5.97-3.1-8.23c-2.25-2.17-4.46-4.37-6.63-6.62c-1.29-1.34-2.43-1.61-4.27-0.73
		c-3.31,1.58-4.64,3.69-4.6,7.56c0.21,20.86,0.01,41.72,0.14,62.57c0.06,9.61-3.52,16.69-12.77,20.33c-86,0-172,0-258,0
		c-5.7-2.3-9.72-6.28-12-12c0-96,0-192,0-288c2.18-2.23,4.47-4.15,7.88-2.66c3.52,1.54,3.67,4.62,3.67,7.88
		c-0.03,90.5-0.02,180.99-0.02,271.49c0,1.5-0.03,3,0.02,4.5c0.16,4.98,2.19,7.06,7.09,7.27c1,0.04,2,0.02,3,0.02
		c79.62,0,159.24,0,238.86,0c1.5,0,3.02,0.08,4.49-0.13c3.42-0.49,5.48-2.44,5.48-6c0.04-20.62,0.02-41.25,0.06-61.87
		c0-1.92-0.69-2.52-2.48-1.87c-16.21,5.87-33.1,5.65-49.99,5.62c-34.12-0.06-68.25-0.01-102.37-0.04c-1.99,0-4.02-0.06-5.96-0.42
		c-3.42-0.64-5.32-3.17-4.91-6.42c0.43-3.33,2.51-5.04,5.79-5.3c1.24-0.1,2.5-0.05,3.75-0.05c22.75,0,45.5,0,68.25,0
		c1.36,0,2.72,0,5.26,0c-7.82-4.49-14.18-9.21-20.12-14.46c-1.36-1.2-3.08-0.84-4.68-0.84c-16.37-0.02-32.75-0.01-49.12-0.02
		c-1.25,0-2.53,0.09-3.74-0.14c-3.15-0.58-5.3-2.29-5.4-5.72c-0.09-3.35,1.7-5.42,4.93-6.1c1.45-0.31,2.98-0.33,4.47-0.33
		c12.5-0.02,25,0,37.5-0.03c1.08,0,2.52,0.52,3.14-0.53c0.69-1.17-0.71-1.97-1.3-2.84c-7.1-10.45-12.28-21.75-14.96-34.11
		c-0.56-2.56-1.7-3.51-4.31-3.47c-7.37,0.13-14.75,0.07-22.12,0.03c-4.6-0.03-7.19-2.09-7.35-5.71c-0.17-3.86,2.36-6.35,7.07-6.46
		c6.87-0.16,13.75-0.15,20.62-0.03c2.95,0.05,4.25-0.93,3.56-3.96c-0.54-2.37-0.04-4.74,0.2-7.09c0.3-2.89-0.74-4.1-3.74-4.03
		c-5.75,0.14-11.5,0.04-17.25,0.03c-1.25,0-2.51,0.01-3.74-0.12c-4.58-0.48-6.9-2.73-6.72-6.43c0.17-3.61,2.74-5.61,7.39-5.63
		c7.5-0.03,15-0.07,22.5,0.02c2.35,0.03,3.55-0.62,4.14-3.14c2.85-12.04,7.94-23.12,14.97-33.31c0.53-0.77,1.71-1.57,0.94-2.55
		c-0.38-0.49-1.61-0.42-2.46-0.42c-12.75-0.02-25.5-0.01-38.25-0.02c-6.35-0.01-9.24-1.99-9.24-6.25c0-4.19,2.84-6.04,9.33-6.05
		c16.25-0.01,32.5-0.04,48.75,0.04c2.65,0.01,4.77-0.58,6.77-2.43c5.21-4.83,11.11-8.77,18.14-12.93c-2.23,0-3.42,0-4.61,0
		c-23.12,0-46.25,0-69.37,0c-1.25,0-2.52,0.09-3.74-0.1c-3.07-0.49-5-2.26-5.24-5.44c-0.23-3.16,1.32-5.32,4.35-6.15
		c1.54-0.42,3.21-0.51,4.82-0.52c40-0.03,80-0.1,119.99,0.03c11.28,0.04,22.45,1.44,33.15,5.28c2.75,0.99,3.48,0.39,3.44-2.47
		c-0.13-8.62-0.16-17.25,0.01-25.87c0.06-3.19-1.17-4.09-4.17-4.07c-14.37,0.1-28.75,0.06-43.12,0.02c-2.24-0.01-4.5-0.14-6.73-0.38
		c-9.66-1.02-15.77-7.81-15.79-17.6c-0.04-16-0.09-32,0.05-48c0.03-3.28-0.94-4.27-4.25-4.26c-58.87,0.09-117.74,0.06-176.62,0.07
		c-6.5,0-8.39,1.96-8.4,8.59c-0.02,14.12-0.04,28.25,0.01,42.37c0.01,3.22-0.48,6.09-3.89,7.34c-3.38,1.23-5.78-0.37-7.66-3.07
		c0-18.25,0-36.5,0-54.75c2.28-5.72,6.29-9.71,12-12C136.5,58.75,202.25,58.75,268,58.75z M414.96,403.77
		c7.48,0.01,12.2-2.77,14.74-8.64c2.64-6.09,1.66-11.83-2.99-16.57c-9.51-9.72-19.23-19.23-28.78-28.92
		c-1.8-1.82-3.04-1.98-4.89-0.06c-5.37,5.56-10.85,11.03-16.41,16.41c-1.89,1.83-1.82,3.04,0.03,4.86
		c9.6,9.45,19.09,19.02,28.62,28.54C408.27,402.35,411.81,403.92,414.96,403.77z M271.6,80.28c-0.06,0.11-0.25,0.32-0.25,0.54
		c-0.02,13.6-0.11,27.2,0,40.8c0.04,4.7,2.27,6.61,7.17,6.62c12.73,0.04,25.46,0.03,38.19,0c0.92,0,2,0.41,2.52-0.23
		C303.35,112.09,287.52,96.23,271.6,80.28z M382.08,342.68c-0.26-0.39-0.52-0.96-0.93-1.38c-2.89-2.93-5.86-5.8-8.72-8.77
		c-1.43-1.47-2.26-0.66-3.33,0.46c-2.94,3.06-5.91,6.1-9.01,9c-1.35,1.26-1.82,2.16-0.28,3.61c2.81,2.66,5.49,5.46,8.24,8.19
		c0.69,0.68,1.52,1.81,2.5,0.87c3.79-3.62,7.46-7.37,11.15-11.09C381.86,343.41,381.9,343.12,382.08,342.68z"/>
	<path d="M147.49,347.5c0,4,0.07,7.99-0.02,11.99c-0.16,7.19-5.24,12.65-12.47,12.87c-8.48,0.26-16.98,0.23-25.47,0.02
		c-6.93-0.18-12.39-5.51-12.6-12.44c-0.27-8.61-0.3-17.24,0.02-25.84c0.26-7.13,5.9-12.21,13.07-12.29c8.11-0.09,16.23-0.1,24.35,0
		c7.76,0.09,13.01,5.49,13.12,13.34C147.54,339.26,147.49,343.38,147.49,347.5z M109.14,347.12c0,3.37,0.03,6.74-0.01,10.11
		c-0.03,2.05,0.92,2.94,2.95,2.93c6.74-0.03,13.48-0.03,20.22-0.01c2.02,0.01,2.97-0.95,2.97-2.96c-0.01-6.74-0.01-13.48,0-20.22
		c0-2.02-1-2.96-3-2.95c-6.74,0.01-13.48,0.02-20.22,0c-2.04-0.01-2.94,0.97-2.91,2.99C109.17,340.38,109.14,343.75,109.14,347.12z"
		/>
	<path d="M147.49,187.37c-0.01,4.24,0.09,8.49-0.03,12.73c-0.2,6.96-5.43,12.4-12.36,12.55c-8.61,0.19-17.23,0.19-25.84,0
		c-6.81-0.15-12.16-5.6-12.35-12.65c-0.23-8.36-0.22-16.73-0.01-25.09c0.18-7.3,5.71-12.68,13.02-12.81
		c8.24-0.15,16.48-0.18,24.72,0.01c7.58,0.17,12.73,5.64,12.85,13.27C147.54,179.38,147.49,183.38,147.49,187.37z M109.13,187.11
		c0,3.37,0.04,6.74-0.02,10.11c-0.04,2.14,0.76,3.28,3.04,3.26c6.62-0.04,13.23-0.04,19.85,0.01c2.43,0.02,3.31-1.16,3.29-3.46
		c-0.05-6.37-0.06-12.73,0.01-19.1c0.03-2.48-0.88-3.67-3.5-3.63c-6.49,0.09-12.98,0.08-19.47,0.01c-2.48-0.03-3.3,1.13-3.23,3.44
		C109.19,180.87,109.13,183.99,109.13,187.11z"/>
	<path d="M147.49,266.35c0,4.12,0.06,8.24-0.02,12.36c-0.14,6.89-4.35,12.09-11.24,12.8c-9.56,0.98-19.21,1.04-28.77-0.11
		c-6.01-0.72-10.37-5.91-10.55-12.32c-0.23-8.49-0.25-16.99,0-25.47c0.2-7,5.41-12.16,12.95-12.51c8.22-0.39,16.49-0.39,24.72-0.03
		c8.06,0.35,12.86,5.89,12.91,14.05C147.52,258.85,147.5,262.6,147.49,266.35z M109.13,266.49c0,3.37,0.05,6.74-0.02,10.1
		c-0.04,2.16,0.76,3.2,3.06,3.18c6.61-0.07,13.22-0.06,19.83,0c2.14,0.02,3.29-0.72,3.28-3c-0.03-6.86-0.03-13.72,0-20.58
		c0.01-2.28-1.16-3.01-3.29-2.99c-6.61,0.06-13.22,0.07-19.83,0c-2.3-0.02-3.08,1.04-3.04,3.19
		C109.18,259.76,109.13,263.12,109.13,266.49z"/>
	<path d="M355.79,268.62c-0.03-32.49-22.34-58.57-53.17-62.42c-41.51-5.18-70.11,27.74-69.85,60.05c0.05,6.29,0.7,12.44,2.4,18.51
		c1.27,4.54-0.25,7.89-3.75,8.82c-3.7,0.98-6.53-1.01-7.87-5.52c-12.89-43.37,16.38-88.26,61.2-93.86
		c41.57-5.19,78.62,24.07,83.07,65.59c4.21,39.24-24.23,75.42-63.77,80.44c-27.63,3.51-50.26-6.21-67.86-27.69
		c-2.86-3.48-2.58-6.89,0.37-9.23c2.72-2.15,6.08-1.55,8.9,1.58c0.33,0.37,0.65,0.76,0.96,1.15c5.65,7.03,12.54,12.49,20.61,16.5
		c37.35,18.53,82.5-5.15,88.35-46.39C355.79,273.2,355.71,270.17,355.79,268.62z"/>
	<path d="M272.62,250.43c5.1-0.22,9.41,1.63,12.8,5.24c2.04,2.17,3.22,1.76,5.04-0.2c4.76-5.13,9.59-10.21,14.63-15.06
		c5.06-4.87,11.19-6.57,17.98-4.39c6.75,2.16,10.86,6.96,12.25,13.9c1.13,5.66-0.4,10.8-4.31,14.91
		c-10.09,10.58-20.24,21.11-30.64,31.39c-6.71,6.64-16.84,6.71-23.8,0.42c-5.74-5.19-11.33-10.58-16.71-16.15
		c-5.41-5.6-6.43-12.39-3.42-19.44C259.41,254.11,264.98,250.53,272.62,250.43z M288.33,288.81c2.37,0.15,3.91-1.33,5.41-2.87
		c8.98-9.22,17.97-18.44,26.94-27.67c0.69-0.71,1.43-1.45,1.87-2.32c1.33-2.6,1.16-5.15-1.08-7.17c-2.25-2.04-4.76-2.04-7.17-0.23
		c-0.99,0.74-1.85,1.67-2.73,2.56c-6.14,6.23-12.23,12.51-18.42,18.7c-3.7,3.7-6.52,3.66-10.34,0.06c-1.82-1.71-3.53-3.55-5.38-5.22
		c-3.28-2.95-6.45-3.03-8.92-0.32c-2.28,2.49-2.02,5.84,0.85,8.67c4.72,4.65,9.52,9.22,14.28,13.82
		C284.94,288.08,286.41,288.94,288.33,288.81z"/>
</g>
</svg>
