<?xml version="1.0" encoding="utf-8"?>
<!-- Generator: Adobe Illustrator 24.2.3, SVG Export Plug-In . SVG Version: 6.00 Build 0)  -->
<svg version="1.1" id="Capa_1" xmlns="http://www.w3.org/2000/svg" xmlns:xlink="http://www.w3.org/1999/xlink" x="0px" y="0px"
	 viewBox="0 0 500 500" style="enable-background:new 0 0 500 500;" xml:space="preserve">
<g>
	<path d="M202,58.75c7.6,1.97,14.59,5.05,20.37,10.59c5.08,4.87,8.88,10.54,10.81,17.27c0.83,2.9,2.32,3.67,5.09,3.6
		c6-0.15,12-0.08,18-0.03c7.71,0.06,10.94,3.29,11.06,10.96c0.08,5.33,0.09,5.22,5.36,5.37c8.6,0.24,17.29-0.98,25.81,0.7
		c19.1,3.78,32.58,20,32.66,39.4c0.12,31.5,0.05,63,0.03,94.5c0,6.09-3.25,9.83-8.37,9.87c-5.26,0.04-8.5-3.75-8.5-10.11
		c-0.02-31.12,0.02-62.25-0.03-93.37c-0.02-14.12-9.93-24-24.06-24.16c-4.5-0.05-9-0.01-13.5-0.01c-8.64,0-8.64,0-9.5,8.5
		c-1.43,14.17-11.29,23.17-25.5,23.18c-31.37,0.02-62.75,0.03-94.12,0c-14.87-0.01-25.19-10.34-25.3-25.22
		c-0.01-0.87-0.09-1.76,0.01-2.62c0.34-2.99-1.04-3.94-3.91-3.87c-6.12,0.14-12.27,0.38-18.37-0.03
		c-13.73-0.92-25.37,11.13-24.82,24.62c0.55,13.48,0.12,26.99,0.12,40.49c0,55.12-0.01,110.25,0.02,165.37
		c0.01,11.92,6.52,20.69,17.37,23.77c2.83,0.8,5.7,0.65,8.56,0.65c35.12,0.02,70.25,0.01,105.37,0.03c1.86,0,3.77,0.02,5.59,0.39
		c4.26,0.88,7.18,4.65,6.88,8.58c-0.34,4.55-3.68,7.77-8.47,7.81c-9.87,0.09-19.75,0.04-29.62,0.04c-26.62,0-53.26-0.48-79.87,0.15
		c-21.53,0.52-38.45-14.18-42.01-32.36c-0.07-0.36-0.26-0.7-0.4-1.05c0-74,0-148,0-222c0.27-0.96,0.54-1.92,0.82-2.88
		c4.96-16.84,16.02-27.25,33.35-29.93c7.57-1.17,15.46-0.38,23.2-0.45c6.6-0.06,6.16,0.58,6.2-5.96
		c0.05-6.86,3.21-10.14,10.03-10.32c4.25-0.11,8.54-0.4,12.73,0.05c6.64,0.72,10.47-0.71,13.17-8.01
		c4.9-13.25,15.96-20.3,29.51-23.5C192.5,58.75,197.25,58.75,202,58.75z M194.53,138.17c15.62,0,31.23,0.03,46.85-0.01
		c6.09-0.02,8.95-2.8,9.07-8.91c0.12-6.24-0.09-12.5,0.09-18.74c0.08-2.94-1.19-3.59-3.81-3.53c-5.87,0.13-11.74,0.05-17.61,0.04
		c-7.73-0.01-10.29-2.4-10.86-10.08c-1.08-14.81-16-25.05-30.23-20.74c-9.46,2.87-15.88,10.91-16.66,20.89
		c-0.57,7.32-3.38,9.92-10.73,9.94c-6,0.01-12,0.1-17.99-0.04c-2.62-0.06-3.54,0.91-3.49,3.49c0.12,6.12,0.01,12.24,0.04,18.36
		c0.03,6.79,2.49,9.31,9.23,9.33C163.8,138.19,179.16,138.17,194.53,138.17z"/>
	<path d="M442.75,293.5c-2.08,6.38-6.33,11.2-10.98,15.84c-39.02,38.94-78,77.91-116.92,116.96c-3.41,3.42-7.17,5.41-11.95,6.33
		c-16.67,3.19-33.28,6.72-49.91,10.12c-2.5,0-5,0-7.5,0c-4.48-3.13-5.29-7.25-4.18-12.49c3.56-16.85,6.79-33.77,10.12-50.67
		c0.64-3.24,1.74-6.09,4.2-8.55c40.87-40.77,81.66-81.63,122.52-122.42c10.72-10.7,25.23-10.66,36.01-0.01
		c6.4,6.32,12.63,12.82,19.13,19.04c4.34,4.16,7.7,8.83,9.45,14.6C442.75,286,442.75,289.75,442.75,293.5z M395.93,257.69
		c-2.51-0.25-4.34,1.21-6.07,2.94c-39.85,39.86-79.7,79.71-119.57,119.55c-1.37,1.37-2.36,2.87-2.74,4.78
		c-2.34,11.88-4.63,23.77-7.09,35.62c-0.58,2.78,0.04,3.29,2.74,2.72c11-2.3,22.01-4.53,33.06-6.56c3.62-0.66,6.39-2.24,8.98-4.83
		c38.74-38.85,77.55-77.62,116.34-116.42c0.8-0.8,1.62-1.57,2.36-2.41c3.07-3.5,3.12-7.73-0.17-11.1
		c-7.16-7.32-14.45-14.53-21.72-21.76C400.42,258.6,398.52,257.45,395.93,257.69z"/>
	<path d="M194.45,203.01c-26.12,0-52.24-0.03-78.36,0.03c-3.82,0.01-6.94-1-8.77-4.51c-2.34-4.5-0.06-9.97,4.77-11.63
		c1.91-0.66,3.91-0.73,5.92-0.73c51.24,0.01,102.48,0.01,153.73,0.01c0.75,0,1.5-0.01,2.25,0.04c5.67,0.42,9.36,4.03,9.15,8.9
		c-0.21,4.7-3.99,7.88-9.56,7.89C247.19,203.02,220.82,203.01,194.45,203.01z"/>
	<path d="M194.59,251.01c-26.25,0-52.49,0.01-78.74-0.01c-5.93-0.01-9.39-3.15-9.34-8.32c0.03-3.78,2.14-6.77,5.8-7.81
		c1.66-0.47,3.44-0.67,5.17-0.67c51.49-0.03,102.98-0.03,154.48-0.04c2.02,0,4.01,0.14,5.9,0.87c3.41,1.32,5.67,5.13,5.22,8.68
		c-0.47,3.64-3.48,6.73-7.13,7.19c-1.36,0.17-2.75,0.11-4.12,0.11C246.09,251.01,220.34,251.01,194.59,251.01z"/>
	<path d="M194.44,299.01c-26.12,0-52.24-0.03-78.36,0.03c-3.82,0.01-6.94-1.01-8.77-4.53c-2.34-4.5-0.04-9.97,4.79-11.62
		c1.92-0.66,3.91-0.73,5.92-0.73c51.24,0.01,102.48,0.01,153.73,0.01c0.75,0,1.5-0.01,2.25,0.04c5.66,0.43,9.36,4.04,9.13,8.91
		c-0.22,4.7-4,7.87-9.58,7.87C247.18,299.02,220.81,299.01,194.44,299.01z"/>
</g>
</svg>
